<mxfile host="app.diagrams.net" agent="Mozilla/5.0 (Windows NT 10.0; Win64; x64) AppleWebKit/537.36 (KHTML, like Gecko) Chrome/134.0.0.0 Safari/537.36" version="26.2.5">
  <diagram name="Page-1" id="aSNJay3SLrgyonZtfAfF">
    <mxGraphModel dx="213" dy="111" grid="0" gridSize="10" guides="1" tooltips="1" connect="1" arrows="1" fold="1" page="1" pageScale="1" pageWidth="1100" pageHeight="850" math="0" shadow="0">
      <root>
        <mxCell id="0" />
        <mxCell id="1" parent="0" />
        <mxCell id="-ZqtGvwiqDM8NGR4fJaD-1" value="" style="shape=image;verticalLabelPosition=bottom;labelBackgroundColor=default;verticalAlign=top;aspect=fixed;imageAspect=0;image=https://datacapturecontrol.com/articles/static/images/io-devices/microcontrollers/arduino-uno-r3/arduino-uno-r3-title-image.svg;rotation=90;" parent="1" vertex="1">
          <mxGeometry x="109" y="89.14999999999998" width="529.3" height="371" as="geometry" />
        </mxCell>
        <mxCell id="-ZqtGvwiqDM8NGR4fJaD-2" value="" style="shape=image;verticalLabelPosition=bottom;labelBackgroundColor=default;verticalAlign=top;aspect=fixed;imageAspect=0;image=https://europe1.discourse-cdn.com/arduino/original/4X/e/6/3/e6300d41371f1b0cd860cb98181292beeeccf57d.png;clipPath=inset(49.32% 87% 8.78% 3%);" parent="1" vertex="1">
          <mxGeometry x="10" y="344.15" width="105.49" height="218" as="geometry" />
        </mxCell>
        <mxCell id="-ZqtGvwiqDM8NGR4fJaD-3" value="&lt;b&gt;&lt;font style=&quot;font-size: 18px;&quot;&gt;5 Volts&lt;/font&gt;&lt;/b&gt;&lt;div&gt;&lt;b&gt;&lt;font style=&quot;font-size: 18px;&quot;&gt;POWER&lt;/font&gt;&lt;/b&gt;&lt;/div&gt;&lt;div&gt;&lt;b&gt;&lt;font style=&quot;font-size: 18px;&quot;&gt;SUPPLY&lt;/font&gt;&lt;/b&gt;&lt;/div&gt;" style="text;html=1;align=center;verticalAlign=middle;resizable=0;points=[];autosize=1;strokeColor=none;fillColor=none;fontColor=#FFFFFF;labelBackgroundColor=light-dark(#333333, #7f7f7f);fontSize=15;" parent="1" vertex="1">
          <mxGeometry x="16" y="448.15" width="88" height="77" as="geometry" />
        </mxCell>
        <mxCell id="-ZqtGvwiqDM8NGR4fJaD-4" value="" style="shape=image;verticalLabelPosition=bottom;labelBackgroundColor=default;verticalAlign=top;aspect=fixed;imageAspect=0;image=https://tapit.vn/wp-content/uploads/2019/06/Nodemcu-1-1024x645.png;clipPath=inset(1.32% 39.67% 2.38% 30.67%);rotation=0;" parent="1" vertex="1">
          <mxGeometry x="609" y="251.14999999999998" width="190.23" height="389" as="geometry" />
        </mxCell>
        <mxCell id="-ZqtGvwiqDM8NGR4fJaD-5" value="" style="endArrow=none;html=1;rounded=0;strokeWidth=3;entryX=0.941;entryY=0.203;entryDx=0;entryDy=0;entryPerimeter=0;fillColor=#6d8764;strokeColor=#0E8088;" parent="1" target="-ZqtGvwiqDM8NGR4fJaD-4" edge="1">
          <mxGeometry width="50" height="50" relative="1" as="geometry">
            <mxPoint x="531" y="279.15" as="sourcePoint" />
            <mxPoint x="850" y="230.14999999999998" as="targetPoint" />
            <Array as="points">
              <mxPoint x="570" y="280.15" />
              <mxPoint x="571" y="233.14999999999998" />
              <mxPoint x="820" y="233.14999999999998" />
              <mxPoint x="820" y="329.15" />
            </Array>
          </mxGeometry>
        </mxCell>
        <mxCell id="-ZqtGvwiqDM8NGR4fJaD-6" value="" style="endArrow=none;html=1;rounded=0;strokeWidth=3;entryX=0.941;entryY=0.203;entryDx=0;entryDy=0;entryPerimeter=0;fillColor=#76608a;strokeColor=#56517E;" parent="1" edge="1">
          <mxGeometry width="50" height="50" relative="1" as="geometry">
            <mxPoint x="531" y="262.15" as="sourcePoint" />
            <mxPoint x="788" y="313.15" as="targetPoint" />
            <Array as="points">
              <mxPoint x="559" y="263.15" />
              <mxPoint x="559" y="216.14999999999998" />
              <mxPoint x="835" y="216.14999999999998" />
              <mxPoint x="835" y="313.15" />
            </Array>
          </mxGeometry>
        </mxCell>
        <mxCell id="-ZqtGvwiqDM8NGR4fJaD-7" value="" style="endArrow=none;html=1;rounded=0;entryX=0.682;entryY=0.914;entryDx=0;entryDy=0;entryPerimeter=0;strokeWidth=3;fillColor=#e51400;strokeColor=#B20000;" parent="1" target="-ZqtGvwiqDM8NGR4fJaD-1" edge="1">
          <mxGeometry width="50" height="50" relative="1" as="geometry">
            <mxPoint x="59" y="344.15" as="sourcePoint" />
            <mxPoint x="109" y="294.15" as="targetPoint" />
            <Array as="points">
              <mxPoint x="59" y="315.15" />
              <mxPoint x="134" y="315.15" />
              <mxPoint x="135" y="371.15" />
            </Array>
          </mxGeometry>
        </mxCell>
        <mxCell id="-ZqtGvwiqDM8NGR4fJaD-8" value="" style="endArrow=none;html=1;rounded=0;entryX=0.652;entryY=0.911;entryDx=0;entryDy=0;entryPerimeter=0;strokeWidth=3;fillColor=#e51400;strokeColor=#1A1A1A;" parent="1" target="-ZqtGvwiqDM8NGR4fJaD-1" edge="1">
          <mxGeometry width="50" height="50" relative="1" as="geometry">
            <mxPoint x="69" y="344.15" as="sourcePoint" />
            <mxPoint x="230" y="371.15" as="targetPoint" />
            <Array as="points">
              <mxPoint x="69" y="299.15" />
              <mxPoint x="147" y="300.15" />
              <mxPoint x="148" y="355.15" />
            </Array>
          </mxGeometry>
        </mxCell>
        <mxCell id="-ZqtGvwiqDM8NGR4fJaD-9" value="" style="endArrow=none;html=1;rounded=0;entryX=0.053;entryY=0.815;entryDx=0;entryDy=0;entryPerimeter=0;exitX=0.59;exitY=0.911;exitDx=0;exitDy=0;exitPerimeter=0;fillColor=#e51400;strokeColor=#B20000;strokeWidth=3;" parent="1" source="-ZqtGvwiqDM8NGR4fJaD-1" target="-ZqtGvwiqDM8NGR4fJaD-4" edge="1">
          <mxGeometry width="50" height="50" relative="1" as="geometry">
            <mxPoint x="335" y="404.15" as="sourcePoint" />
            <mxPoint x="385" y="354.15" as="targetPoint" />
            <Array as="points">
              <mxPoint x="173" y="322.15" />
              <mxPoint x="173" y="565.15" />
            </Array>
          </mxGeometry>
        </mxCell>
        <mxCell id="-ZqtGvwiqDM8NGR4fJaD-10" value="" style="endArrow=none;html=1;rounded=0;entryX=0.053;entryY=0.815;entryDx=0;entryDy=0;entryPerimeter=0;exitX=0.622;exitY=0.914;exitDx=0;exitDy=0;exitPerimeter=0;fillColor=#e51400;strokeColor=#1A1A1A;strokeWidth=3;" parent="1" source="-ZqtGvwiqDM8NGR4fJaD-1" edge="1">
          <mxGeometry width="50" height="50" relative="1" as="geometry">
            <mxPoint x="222" y="304.15" as="sourcePoint" />
            <mxPoint x="620" y="550.15" as="targetPoint" />
            <Array as="points">
              <mxPoint x="186" y="339.15" />
              <mxPoint x="188" y="547.15" />
            </Array>
          </mxGeometry>
        </mxCell>
        <mxCell id="-ZqtGvwiqDM8NGR4fJaD-11" value="" style="shape=image;verticalLabelPosition=bottom;labelBackgroundColor=default;verticalAlign=top;aspect=fixed;imageAspect=0;image=https://datacapturecontrol.com/articles/static/images/io-devices/microcontrollers/arduino-uno-r3/arduino-uno-r3-title-image.svg;rotation=90;" parent="1" vertex="1">
          <mxGeometry x="109" y="89.14999999999998" width="529.3" height="371" as="geometry" />
        </mxCell>
        <mxCell id="-ZqtGvwiqDM8NGR4fJaD-12" value="" style="shape=image;verticalLabelPosition=bottom;labelBackgroundColor=default;verticalAlign=top;aspect=fixed;imageAspect=0;image=https://europe1.discourse-cdn.com/arduino/original/4X/e/6/3/e6300d41371f1b0cd860cb98181292beeeccf57d.png;clipPath=inset(49.32% 87% 8.78% 3%);" parent="1" vertex="1">
          <mxGeometry x="10" y="344.15" width="105.49" height="218" as="geometry" />
        </mxCell>
        <mxCell id="-ZqtGvwiqDM8NGR4fJaD-13" value="&lt;b&gt;&lt;font style=&quot;font-size: 18px;&quot;&gt;5 Volts&lt;/font&gt;&lt;/b&gt;&lt;div&gt;&lt;b&gt;&lt;font style=&quot;font-size: 18px;&quot;&gt;POWER&lt;/font&gt;&lt;/b&gt;&lt;/div&gt;&lt;div&gt;&lt;b&gt;&lt;font style=&quot;font-size: 18px;&quot;&gt;SUPPLY&lt;/font&gt;&lt;/b&gt;&lt;/div&gt;" style="text;html=1;align=center;verticalAlign=middle;resizable=0;points=[];autosize=1;strokeColor=none;fillColor=none;fontColor=#FFFFFF;labelBackgroundColor=light-dark(#333333, #7f7f7f);fontSize=15;" parent="1" vertex="1">
          <mxGeometry x="16" y="448.15" width="88" height="77" as="geometry" />
        </mxCell>
        <mxCell id="-ZqtGvwiqDM8NGR4fJaD-14" value="" style="shape=image;verticalLabelPosition=bottom;labelBackgroundColor=default;verticalAlign=top;aspect=fixed;imageAspect=0;image=https://tapit.vn/wp-content/uploads/2019/06/Nodemcu-1-1024x645.png;clipPath=inset(1.32% 39.67% 2.38% 30.67%);rotation=0;" parent="1" vertex="1">
          <mxGeometry x="609" y="251.14999999999998" width="190.23" height="389" as="geometry" />
        </mxCell>
        <mxCell id="-ZqtGvwiqDM8NGR4fJaD-15" value="" style="endArrow=none;html=1;rounded=0;strokeWidth=3;entryX=0.941;entryY=0.203;entryDx=0;entryDy=0;entryPerimeter=0;fillColor=#6d8764;strokeColor=#0E8088;" parent="1" target="-ZqtGvwiqDM8NGR4fJaD-14" edge="1">
          <mxGeometry width="50" height="50" relative="1" as="geometry">
            <mxPoint x="531" y="279.15" as="sourcePoint" />
            <mxPoint x="850" y="230.14999999999998" as="targetPoint" />
            <Array as="points">
              <mxPoint x="570" y="280.15" />
              <mxPoint x="571" y="233.14999999999998" />
              <mxPoint x="820" y="233.14999999999998" />
              <mxPoint x="820" y="329.15" />
            </Array>
          </mxGeometry>
        </mxCell>
        <mxCell id="-ZqtGvwiqDM8NGR4fJaD-16" value="" style="endArrow=none;html=1;rounded=0;strokeWidth=3;entryX=0.941;entryY=0.203;entryDx=0;entryDy=0;entryPerimeter=0;fillColor=#76608a;strokeColor=#56517E;" parent="1" edge="1">
          <mxGeometry width="50" height="50" relative="1" as="geometry">
            <mxPoint x="531" y="262.15" as="sourcePoint" />
            <mxPoint x="788" y="313.15" as="targetPoint" />
            <Array as="points">
              <mxPoint x="559" y="263.15" />
              <mxPoint x="559" y="216.14999999999998" />
              <mxPoint x="835" y="216.14999999999998" />
              <mxPoint x="835" y="313.15" />
            </Array>
          </mxGeometry>
        </mxCell>
        <mxCell id="-ZqtGvwiqDM8NGR4fJaD-17" value="" style="endArrow=none;html=1;rounded=0;entryX=0.682;entryY=0.914;entryDx=0;entryDy=0;entryPerimeter=0;strokeWidth=3;fillColor=#e51400;strokeColor=#B20000;" parent="1" target="-ZqtGvwiqDM8NGR4fJaD-11" edge="1">
          <mxGeometry width="50" height="50" relative="1" as="geometry">
            <mxPoint x="59" y="344.15" as="sourcePoint" />
            <mxPoint x="109" y="294.15" as="targetPoint" />
            <Array as="points">
              <mxPoint x="59" y="315.15" />
              <mxPoint x="134" y="315.15" />
              <mxPoint x="135" y="371.15" />
            </Array>
          </mxGeometry>
        </mxCell>
        <mxCell id="-ZqtGvwiqDM8NGR4fJaD-18" value="" style="endArrow=none;html=1;rounded=0;entryX=0.652;entryY=0.911;entryDx=0;entryDy=0;entryPerimeter=0;strokeWidth=3;fillColor=#e51400;strokeColor=#1A1A1A;" parent="1" target="-ZqtGvwiqDM8NGR4fJaD-11" edge="1">
          <mxGeometry width="50" height="50" relative="1" as="geometry">
            <mxPoint x="69" y="344.15" as="sourcePoint" />
            <mxPoint x="230" y="371.15" as="targetPoint" />
            <Array as="points">
              <mxPoint x="69" y="299.15" />
              <mxPoint x="147" y="300.15" />
              <mxPoint x="148" y="355.15" />
            </Array>
          </mxGeometry>
        </mxCell>
        <mxCell id="-ZqtGvwiqDM8NGR4fJaD-19" value="" style="endArrow=none;html=1;rounded=0;entryX=0.053;entryY=0.815;entryDx=0;entryDy=0;entryPerimeter=0;exitX=0.59;exitY=0.911;exitDx=0;exitDy=0;exitPerimeter=0;fillColor=#e51400;strokeColor=#B20000;strokeWidth=3;" parent="1" source="-ZqtGvwiqDM8NGR4fJaD-11" target="-ZqtGvwiqDM8NGR4fJaD-14" edge="1">
          <mxGeometry width="50" height="50" relative="1" as="geometry">
            <mxPoint x="335" y="404.15" as="sourcePoint" />
            <mxPoint x="385" y="354.15" as="targetPoint" />
            <Array as="points">
              <mxPoint x="173" y="322.15" />
              <mxPoint x="173" y="565.15" />
            </Array>
          </mxGeometry>
        </mxCell>
        <mxCell id="-ZqtGvwiqDM8NGR4fJaD-20" value="" style="endArrow=none;html=1;rounded=0;entryX=0.053;entryY=0.815;entryDx=0;entryDy=0;entryPerimeter=0;exitX=0.622;exitY=0.914;exitDx=0;exitDy=0;exitPerimeter=0;fillColor=#e51400;strokeColor=#1A1A1A;strokeWidth=3;" parent="1" source="-ZqtGvwiqDM8NGR4fJaD-11" edge="1">
          <mxGeometry width="50" height="50" relative="1" as="geometry">
            <mxPoint x="222" y="304.15" as="sourcePoint" />
            <mxPoint x="620" y="550.15" as="targetPoint" />
            <Array as="points">
              <mxPoint x="186" y="339.15" />
              <mxPoint x="188" y="547.15" />
            </Array>
          </mxGeometry>
        </mxCell>
        <mxCell id="-ZqtGvwiqDM8NGR4fJaD-21" value="" style="shape=image;verticalLabelPosition=bottom;labelBackgroundColor=default;verticalAlign=top;aspect=fixed;imageAspect=0;image=https://datacapturecontrol.com/articles/static/images/io-devices/microcontrollers/arduino-uno-r3/arduino-uno-r3-title-image.svg;rotation=90;" parent="1" vertex="1">
          <mxGeometry x="109" y="89.14999999999998" width="529.3" height="371" as="geometry" />
        </mxCell>
        <mxCell id="-ZqtGvwiqDM8NGR4fJaD-22" value="" style="shape=image;verticalLabelPosition=bottom;labelBackgroundColor=default;verticalAlign=top;aspect=fixed;imageAspect=0;image=https://europe1.discourse-cdn.com/arduino/original/4X/e/6/3/e6300d41371f1b0cd860cb98181292beeeccf57d.png;clipPath=inset(49.32% 87% 8.78% 3%);" parent="1" vertex="1">
          <mxGeometry x="10" y="344.15" width="105.49" height="218" as="geometry" />
        </mxCell>
        <mxCell id="-ZqtGvwiqDM8NGR4fJaD-23" value="&lt;b&gt;&lt;font style=&quot;font-size: 18px;&quot;&gt;5 Volts&lt;/font&gt;&lt;/b&gt;&lt;div&gt;&lt;b&gt;&lt;font style=&quot;font-size: 18px;&quot;&gt;POWER&lt;/font&gt;&lt;/b&gt;&lt;/div&gt;&lt;div&gt;&lt;b&gt;&lt;font style=&quot;font-size: 18px;&quot;&gt;SUPPLY&lt;/font&gt;&lt;/b&gt;&lt;/div&gt;" style="text;html=1;align=center;verticalAlign=middle;resizable=0;points=[];autosize=1;strokeColor=none;fillColor=none;fontColor=#FFFFFF;labelBackgroundColor=light-dark(#333333, #7f7f7f);fontSize=15;" parent="1" vertex="1">
          <mxGeometry x="16" y="448.15" width="88" height="77" as="geometry" />
        </mxCell>
        <mxCell id="-ZqtGvwiqDM8NGR4fJaD-24" value="" style="shape=image;verticalLabelPosition=bottom;labelBackgroundColor=default;verticalAlign=top;aspect=fixed;imageAspect=0;image=https://tapit.vn/wp-content/uploads/2019/06/Nodemcu-1-1024x645.png;clipPath=inset(1.32% 39.67% 2.38% 30.67%);rotation=0;" parent="1" vertex="1">
          <mxGeometry x="609" y="251.14999999999998" width="190.23" height="389" as="geometry" />
        </mxCell>
        <mxCell id="-ZqtGvwiqDM8NGR4fJaD-25" value="" style="endArrow=none;html=1;rounded=0;strokeWidth=3;entryX=0.941;entryY=0.203;entryDx=0;entryDy=0;entryPerimeter=0;fillColor=#6d8764;strokeColor=#0E8088;" parent="1" target="-ZqtGvwiqDM8NGR4fJaD-24" edge="1">
          <mxGeometry width="50" height="50" relative="1" as="geometry">
            <mxPoint x="531" y="279.15" as="sourcePoint" />
            <mxPoint x="850" y="230.14999999999998" as="targetPoint" />
            <Array as="points">
              <mxPoint x="570" y="280.15" />
              <mxPoint x="571" y="233.14999999999998" />
              <mxPoint x="820" y="233.14999999999998" />
              <mxPoint x="820" y="329.15" />
            </Array>
          </mxGeometry>
        </mxCell>
        <mxCell id="-ZqtGvwiqDM8NGR4fJaD-26" value="" style="endArrow=none;html=1;rounded=0;strokeWidth=3;entryX=0.941;entryY=0.203;entryDx=0;entryDy=0;entryPerimeter=0;fillColor=#FFFFFF;strokeColor=#56517E;" parent="1" edge="1">
          <mxGeometry width="50" height="50" relative="1" as="geometry">
            <mxPoint x="531" y="262.15" as="sourcePoint" />
            <mxPoint x="788" y="313.15" as="targetPoint" />
            <Array as="points">
              <mxPoint x="559" y="263.15" />
              <mxPoint x="559" y="216.14999999999998" />
              <mxPoint x="835" y="216.14999999999998" />
              <mxPoint x="835" y="313.15" />
            </Array>
          </mxGeometry>
        </mxCell>
        <mxCell id="-ZqtGvwiqDM8NGR4fJaD-27" value="" style="endArrow=none;html=1;rounded=0;entryX=0.682;entryY=0.914;entryDx=0;entryDy=0;entryPerimeter=0;strokeWidth=3;fillColor=#e51400;strokeColor=#B20000;" parent="1" target="-ZqtGvwiqDM8NGR4fJaD-21" edge="1">
          <mxGeometry width="50" height="50" relative="1" as="geometry">
            <mxPoint x="59" y="344.15" as="sourcePoint" />
            <mxPoint x="109" y="294.15" as="targetPoint" />
            <Array as="points">
              <mxPoint x="59" y="315.15" />
              <mxPoint x="134" y="315.15" />
              <mxPoint x="135" y="371.15" />
            </Array>
          </mxGeometry>
        </mxCell>
        <mxCell id="-ZqtGvwiqDM8NGR4fJaD-28" value="" style="endArrow=none;html=1;rounded=0;entryX=0.652;entryY=0.911;entryDx=0;entryDy=0;entryPerimeter=0;strokeWidth=3;fillColor=#e51400;strokeColor=#1A1A1A;" parent="1" target="-ZqtGvwiqDM8NGR4fJaD-21" edge="1">
          <mxGeometry width="50" height="50" relative="1" as="geometry">
            <mxPoint x="69" y="344.15" as="sourcePoint" />
            <mxPoint x="230" y="371.15" as="targetPoint" />
            <Array as="points">
              <mxPoint x="69" y="299.15" />
              <mxPoint x="147" y="300.15" />
              <mxPoint x="148" y="355.15" />
            </Array>
          </mxGeometry>
        </mxCell>
        <mxCell id="-ZqtGvwiqDM8NGR4fJaD-29" value="" style="endArrow=none;html=1;rounded=0;entryX=0.053;entryY=0.815;entryDx=0;entryDy=0;entryPerimeter=0;exitX=0.59;exitY=0.911;exitDx=0;exitDy=0;exitPerimeter=0;fillColor=#e51400;strokeColor=#B20000;strokeWidth=3;" parent="1" source="-ZqtGvwiqDM8NGR4fJaD-21" target="-ZqtGvwiqDM8NGR4fJaD-24" edge="1">
          <mxGeometry width="50" height="50" relative="1" as="geometry">
            <mxPoint x="335" y="404.15" as="sourcePoint" />
            <mxPoint x="385" y="354.15" as="targetPoint" />
            <Array as="points">
              <mxPoint x="173" y="322.15" />
              <mxPoint x="173" y="565.15" />
            </Array>
          </mxGeometry>
        </mxCell>
        <mxCell id="-ZqtGvwiqDM8NGR4fJaD-30" value="" style="endArrow=none;html=1;rounded=0;entryX=0.053;entryY=0.815;entryDx=0;entryDy=0;entryPerimeter=0;exitX=0.622;exitY=0.914;exitDx=0;exitDy=0;exitPerimeter=0;fillColor=#e51400;strokeColor=#1A1A1A;strokeWidth=3;" parent="1" source="-ZqtGvwiqDM8NGR4fJaD-21" edge="1">
          <mxGeometry width="50" height="50" relative="1" as="geometry">
            <mxPoint x="222" y="304.15" as="sourcePoint" />
            <mxPoint x="620" y="550.15" as="targetPoint" />
            <Array as="points">
              <mxPoint x="186" y="339.15" />
              <mxPoint x="188" y="547.15" />
            </Array>
          </mxGeometry>
        </mxCell>
        <mxCell id="-ZqtGvwiqDM8NGR4fJaD-31" value="" style="shape=image;verticalLabelPosition=bottom;labelBackgroundColor=default;verticalAlign=top;aspect=fixed;imageAspect=0;image=https://datacapturecontrol.com/articles/static/images/io-devices/microcontrollers/arduino-uno-r3/arduino-uno-r3-title-image.svg;rotation=90;" parent="1" vertex="1">
          <mxGeometry x="109" y="89.14999999999998" width="529.3" height="371" as="geometry" />
        </mxCell>
        <mxCell id="-ZqtGvwiqDM8NGR4fJaD-32" value="" style="shape=image;verticalLabelPosition=bottom;labelBackgroundColor=default;verticalAlign=top;aspect=fixed;imageAspect=0;image=https://europe1.discourse-cdn.com/arduino/original/4X/e/6/3/e6300d41371f1b0cd860cb98181292beeeccf57d.png;clipPath=inset(49.32% 87% 8.78% 3%);" parent="1" vertex="1">
          <mxGeometry x="10" y="344.15" width="105.49" height="218" as="geometry" />
        </mxCell>
        <mxCell id="-ZqtGvwiqDM8NGR4fJaD-33" value="&lt;b&gt;&lt;font style=&quot;font-size: 18px;&quot;&gt;5 Volts&lt;/font&gt;&lt;/b&gt;&lt;div&gt;&lt;b&gt;&lt;font style=&quot;font-size: 18px;&quot;&gt;POWER&lt;/font&gt;&lt;/b&gt;&lt;/div&gt;&lt;div&gt;&lt;b&gt;&lt;font style=&quot;font-size: 18px;&quot;&gt;SUPPLY&lt;/font&gt;&lt;/b&gt;&lt;/div&gt;" style="text;html=1;align=center;verticalAlign=middle;resizable=0;points=[];autosize=1;strokeColor=none;fillColor=none;fontColor=#FFFFFF;labelBackgroundColor=light-dark(#333333, #7f7f7f);fontSize=15;" parent="1" vertex="1">
          <mxGeometry x="16" y="448.15" width="88" height="77" as="geometry" />
        </mxCell>
        <mxCell id="-ZqtGvwiqDM8NGR4fJaD-34" value="" style="shape=image;verticalLabelPosition=bottom;labelBackgroundColor=default;verticalAlign=top;aspect=fixed;imageAspect=0;image=https://tapit.vn/wp-content/uploads/2019/06/Nodemcu-1-1024x645.png;clipPath=inset(1.32% 39.67% 2.38% 30.67%);rotation=0;" parent="1" vertex="1">
          <mxGeometry x="609" y="251.14999999999998" width="190.23" height="389" as="geometry" />
        </mxCell>
        <mxCell id="-ZqtGvwiqDM8NGR4fJaD-35" value="" style="endArrow=none;html=1;rounded=0;strokeWidth=3;entryX=0.941;entryY=0.203;entryDx=0;entryDy=0;entryPerimeter=0;fillColor=#6d8764;strokeColor=#0E8088;" parent="1" target="-ZqtGvwiqDM8NGR4fJaD-34" edge="1">
          <mxGeometry width="50" height="50" relative="1" as="geometry">
            <mxPoint x="531" y="279.15" as="sourcePoint" />
            <mxPoint x="850" y="230.14999999999998" as="targetPoint" />
            <Array as="points">
              <mxPoint x="570" y="280.15" />
              <mxPoint x="571" y="233.14999999999998" />
              <mxPoint x="820" y="233.14999999999998" />
              <mxPoint x="820" y="329.15" />
            </Array>
          </mxGeometry>
        </mxCell>
        <mxCell id="-ZqtGvwiqDM8NGR4fJaD-37" value="" style="endArrow=none;html=1;rounded=0;entryX=0.682;entryY=0.914;entryDx=0;entryDy=0;entryPerimeter=0;strokeWidth=3;fillColor=#e51400;strokeColor=#B20000;" parent="1" target="-ZqtGvwiqDM8NGR4fJaD-31" edge="1">
          <mxGeometry width="50" height="50" relative="1" as="geometry">
            <mxPoint x="59" y="344.15" as="sourcePoint" />
            <mxPoint x="109" y="294.15" as="targetPoint" />
            <Array as="points">
              <mxPoint x="59" y="315.15" />
              <mxPoint x="134" y="315.15" />
              <mxPoint x="135" y="371.15" />
            </Array>
          </mxGeometry>
        </mxCell>
        <mxCell id="-ZqtGvwiqDM8NGR4fJaD-38" value="" style="endArrow=none;html=1;rounded=0;entryX=0.652;entryY=0.911;entryDx=0;entryDy=0;entryPerimeter=0;strokeWidth=3;fillColor=#e51400;strokeColor=#1A1A1A;" parent="1" target="-ZqtGvwiqDM8NGR4fJaD-31" edge="1">
          <mxGeometry width="50" height="50" relative="1" as="geometry">
            <mxPoint x="69" y="344.15" as="sourcePoint" />
            <mxPoint x="230" y="371.15" as="targetPoint" />
            <Array as="points">
              <mxPoint x="69" y="299.15" />
              <mxPoint x="147" y="300.15" />
              <mxPoint x="148" y="355.15" />
            </Array>
          </mxGeometry>
        </mxCell>
        <mxCell id="-ZqtGvwiqDM8NGR4fJaD-39" value="" style="endArrow=none;html=1;rounded=0;entryX=0.053;entryY=0.815;entryDx=0;entryDy=0;entryPerimeter=0;exitX=0.59;exitY=0.911;exitDx=0;exitDy=0;exitPerimeter=0;fillColor=#e51400;strokeColor=#B20000;strokeWidth=3;" parent="1" source="-ZqtGvwiqDM8NGR4fJaD-31" target="-ZqtGvwiqDM8NGR4fJaD-34" edge="1">
          <mxGeometry width="50" height="50" relative="1" as="geometry">
            <mxPoint x="335" y="404.15" as="sourcePoint" />
            <mxPoint x="385" y="354.15" as="targetPoint" />
            <Array as="points">
              <mxPoint x="173" y="322.15" />
              <mxPoint x="173" y="565.15" />
            </Array>
          </mxGeometry>
        </mxCell>
        <mxCell id="-ZqtGvwiqDM8NGR4fJaD-40" value="" style="endArrow=none;html=1;rounded=0;entryX=0.053;entryY=0.815;entryDx=0;entryDy=0;entryPerimeter=0;exitX=0.622;exitY=0.914;exitDx=0;exitDy=0;exitPerimeter=0;fillColor=#e51400;strokeColor=#1A1A1A;strokeWidth=3;" parent="1" source="-ZqtGvwiqDM8NGR4fJaD-31" edge="1">
          <mxGeometry width="50" height="50" relative="1" as="geometry">
            <mxPoint x="222" y="304.15" as="sourcePoint" />
            <mxPoint x="620" y="550.15" as="targetPoint" />
            <Array as="points">
              <mxPoint x="186" y="339.15" />
              <mxPoint x="188" y="547.15" />
            </Array>
          </mxGeometry>
        </mxCell>
        <mxCell id="-ZqtGvwiqDM8NGR4fJaD-41" value="" style="shape=image;verticalLabelPosition=bottom;labelBackgroundColor=default;verticalAlign=top;aspect=fixed;imageAspect=0;image=https://datacapturecontrol.com/articles/static/images/io-devices/microcontrollers/arduino-uno-r3/arduino-uno-r3-title-image.svg;rotation=90;" parent="1" vertex="1">
          <mxGeometry x="109" y="89.14999999999998" width="529.3" height="371" as="geometry" />
        </mxCell>
        <mxCell id="-ZqtGvwiqDM8NGR4fJaD-42" value="" style="shape=image;verticalLabelPosition=bottom;labelBackgroundColor=default;verticalAlign=top;aspect=fixed;imageAspect=0;image=https://europe1.discourse-cdn.com/arduino/original/4X/e/6/3/e6300d41371f1b0cd860cb98181292beeeccf57d.png;clipPath=inset(49.32% 87% 8.78% 3%);" parent="1" vertex="1">
          <mxGeometry x="10" y="344.15" width="105.49" height="218" as="geometry" />
        </mxCell>
        <mxCell id="-ZqtGvwiqDM8NGR4fJaD-43" value="&lt;b&gt;&lt;font style=&quot;font-size: 18px;&quot;&gt;5 Volts&lt;/font&gt;&lt;/b&gt;&lt;div&gt;&lt;b&gt;&lt;font style=&quot;font-size: 18px;&quot;&gt;POWER&lt;/font&gt;&lt;/b&gt;&lt;/div&gt;&lt;div&gt;&lt;b&gt;&lt;font style=&quot;font-size: 18px;&quot;&gt;SUPPLY&lt;/font&gt;&lt;/b&gt;&lt;/div&gt;" style="text;html=1;align=center;verticalAlign=middle;resizable=0;points=[];autosize=1;strokeColor=none;fillColor=none;fontColor=#FFFFFF;labelBackgroundColor=light-dark(#333333, #7f7f7f);fontSize=15;" parent="1" vertex="1">
          <mxGeometry x="16" y="448.15" width="88" height="77" as="geometry" />
        </mxCell>
        <mxCell id="-ZqtGvwiqDM8NGR4fJaD-44" value="" style="shape=image;verticalLabelPosition=bottom;labelBackgroundColor=default;verticalAlign=top;aspect=fixed;imageAspect=0;image=https://tapit.vn/wp-content/uploads/2019/06/Nodemcu-1-1024x645.png;clipPath=inset(1.32% 39.67% 2.38% 30.67%);rotation=0;" parent="1" vertex="1">
          <mxGeometry x="609" y="251.14999999999998" width="190.23" height="389" as="geometry" />
        </mxCell>
        <mxCell id="-ZqtGvwiqDM8NGR4fJaD-45" value="" style="endArrow=none;html=1;rounded=0;strokeWidth=3;entryX=0.941;entryY=0.203;entryDx=0;entryDy=0;entryPerimeter=0;fillColor=#6d8764;strokeColor=#0E8088;" parent="1" target="-ZqtGvwiqDM8NGR4fJaD-44" edge="1">
          <mxGeometry width="50" height="50" relative="1" as="geometry">
            <mxPoint x="531" y="279.15" as="sourcePoint" />
            <mxPoint x="850" y="230.14999999999998" as="targetPoint" />
            <Array as="points">
              <mxPoint x="570" y="280.15" />
              <mxPoint x="571" y="233.14999999999998" />
              <mxPoint x="820" y="233.14999999999998" />
              <mxPoint x="820" y="329.15" />
            </Array>
          </mxGeometry>
        </mxCell>
        <mxCell id="-ZqtGvwiqDM8NGR4fJaD-47" value="" style="endArrow=none;html=1;rounded=0;entryX=0.682;entryY=0.914;entryDx=0;entryDy=0;entryPerimeter=0;strokeWidth=3;fillColor=#e51400;strokeColor=#B20000;" parent="1" target="-ZqtGvwiqDM8NGR4fJaD-41" edge="1">
          <mxGeometry width="50" height="50" relative="1" as="geometry">
            <mxPoint x="59" y="344.15" as="sourcePoint" />
            <mxPoint x="109" y="294.15" as="targetPoint" />
            <Array as="points">
              <mxPoint x="59" y="315.15" />
              <mxPoint x="134" y="315.15" />
              <mxPoint x="135" y="371.15" />
            </Array>
          </mxGeometry>
        </mxCell>
        <mxCell id="-ZqtGvwiqDM8NGR4fJaD-48" value="" style="endArrow=none;html=1;rounded=0;entryX=0.652;entryY=0.911;entryDx=0;entryDy=0;entryPerimeter=0;strokeWidth=3;fillColor=#e51400;strokeColor=#1A1A1A;" parent="1" target="-ZqtGvwiqDM8NGR4fJaD-41" edge="1">
          <mxGeometry width="50" height="50" relative="1" as="geometry">
            <mxPoint x="69" y="344.15" as="sourcePoint" />
            <mxPoint x="230" y="371.15" as="targetPoint" />
            <Array as="points">
              <mxPoint x="69" y="299.15" />
              <mxPoint x="147" y="300.15" />
              <mxPoint x="148" y="355.15" />
            </Array>
          </mxGeometry>
        </mxCell>
        <mxCell id="-ZqtGvwiqDM8NGR4fJaD-49" value="" style="endArrow=none;html=1;rounded=0;entryX=0.053;entryY=0.815;entryDx=0;entryDy=0;entryPerimeter=0;exitX=0.59;exitY=0.911;exitDx=0;exitDy=0;exitPerimeter=0;fillColor=#e51400;strokeColor=#B20000;strokeWidth=3;" parent="1" source="-ZqtGvwiqDM8NGR4fJaD-41" target="-ZqtGvwiqDM8NGR4fJaD-44" edge="1">
          <mxGeometry width="50" height="50" relative="1" as="geometry">
            <mxPoint x="335" y="404.15" as="sourcePoint" />
            <mxPoint x="385" y="354.15" as="targetPoint" />
            <Array as="points">
              <mxPoint x="173" y="322.15" />
              <mxPoint x="173" y="565.15" />
            </Array>
          </mxGeometry>
        </mxCell>
        <mxCell id="-ZqtGvwiqDM8NGR4fJaD-50" value="" style="endArrow=none;html=1;rounded=0;entryX=0.053;entryY=0.815;entryDx=0;entryDy=0;entryPerimeter=0;exitX=0.622;exitY=0.914;exitDx=0;exitDy=0;exitPerimeter=0;fillColor=#e51400;strokeColor=#1A1A1A;strokeWidth=3;" parent="1" source="-ZqtGvwiqDM8NGR4fJaD-41" edge="1">
          <mxGeometry width="50" height="50" relative="1" as="geometry">
            <mxPoint x="222" y="304.15" as="sourcePoint" />
            <mxPoint x="620" y="550.15" as="targetPoint" />
            <Array as="points">
              <mxPoint x="186" y="339.15" />
              <mxPoint x="188" y="547.15" />
            </Array>
          </mxGeometry>
        </mxCell>
        <mxCell id="-ZqtGvwiqDM8NGR4fJaD-51" value="" style="shape=image;verticalLabelPosition=bottom;labelBackgroundColor=default;verticalAlign=top;aspect=fixed;imageAspect=0;image=https://datacapturecontrol.com/articles/static/images/io-devices/microcontrollers/arduino-uno-r3/arduino-uno-r3-title-image.svg;rotation=90;" parent="1" vertex="1">
          <mxGeometry x="109" y="89.14999999999998" width="529.3" height="371" as="geometry" />
        </mxCell>
        <mxCell id="-ZqtGvwiqDM8NGR4fJaD-52" value="" style="shape=image;verticalLabelPosition=bottom;labelBackgroundColor=default;verticalAlign=top;aspect=fixed;imageAspect=0;image=https://europe1.discourse-cdn.com/arduino/original/4X/e/6/3/e6300d41371f1b0cd860cb98181292beeeccf57d.png;clipPath=inset(49.32% 87% 8.78% 3%);" parent="1" vertex="1">
          <mxGeometry x="10" y="344.15" width="105.49" height="218" as="geometry" />
        </mxCell>
        <mxCell id="-ZqtGvwiqDM8NGR4fJaD-53" value="&lt;b&gt;&lt;font style=&quot;font-size: 18px;&quot;&gt;5 Volts&lt;/font&gt;&lt;/b&gt;&lt;div&gt;&lt;b&gt;&lt;font style=&quot;font-size: 18px;&quot;&gt;POWER&lt;/font&gt;&lt;/b&gt;&lt;/div&gt;&lt;div&gt;&lt;b&gt;&lt;font style=&quot;font-size: 18px;&quot;&gt;SUPPLY&lt;/font&gt;&lt;/b&gt;&lt;/div&gt;" style="text;html=1;align=center;verticalAlign=middle;resizable=0;points=[];autosize=1;strokeColor=none;fillColor=none;fontColor=#FFFFFF;labelBackgroundColor=light-dark(#333333, #7f7f7f);fontSize=15;" parent="1" vertex="1">
          <mxGeometry x="16" y="448.15" width="88" height="77" as="geometry" />
        </mxCell>
        <mxCell id="-ZqtGvwiqDM8NGR4fJaD-54" value="" style="shape=image;verticalLabelPosition=bottom;labelBackgroundColor=default;verticalAlign=top;aspect=fixed;imageAspect=0;image=https://tapit.vn/wp-content/uploads/2019/06/Nodemcu-1-1024x645.png;clipPath=inset(1.32% 39.67% 2.38% 30.67%);rotation=0;" parent="1" vertex="1">
          <mxGeometry x="609" y="251.14999999999998" width="190.23" height="389" as="geometry" />
        </mxCell>
        <mxCell id="-ZqtGvwiqDM8NGR4fJaD-55" value="" style="endArrow=none;html=1;rounded=0;strokeWidth=3;entryX=0.941;entryY=0.203;entryDx=0;entryDy=0;entryPerimeter=0;fillColor=#6d8764;strokeColor=#0E8088;" parent="1" target="-ZqtGvwiqDM8NGR4fJaD-54" edge="1">
          <mxGeometry width="50" height="50" relative="1" as="geometry">
            <mxPoint x="531" y="279.15" as="sourcePoint" />
            <mxPoint x="850" y="230.14999999999998" as="targetPoint" />
            <Array as="points">
              <mxPoint x="570" y="280.15" />
              <mxPoint x="571" y="233.14999999999998" />
              <mxPoint x="820" y="233.14999999999998" />
              <mxPoint x="820" y="329.15" />
            </Array>
          </mxGeometry>
        </mxCell>
        <mxCell id="-ZqtGvwiqDM8NGR4fJaD-57" value="" style="endArrow=none;html=1;rounded=0;entryX=0.682;entryY=0.914;entryDx=0;entryDy=0;entryPerimeter=0;strokeWidth=3;fillColor=#e51400;strokeColor=#B20000;" parent="1" target="-ZqtGvwiqDM8NGR4fJaD-51" edge="1">
          <mxGeometry width="50" height="50" relative="1" as="geometry">
            <mxPoint x="59" y="344.15" as="sourcePoint" />
            <mxPoint x="109" y="294.15" as="targetPoint" />
            <Array as="points">
              <mxPoint x="59" y="315.15" />
              <mxPoint x="134" y="315.15" />
              <mxPoint x="135" y="371.15" />
            </Array>
          </mxGeometry>
        </mxCell>
        <mxCell id="-ZqtGvwiqDM8NGR4fJaD-58" value="" style="endArrow=none;html=1;rounded=0;entryX=0.652;entryY=0.911;entryDx=0;entryDy=0;entryPerimeter=0;strokeWidth=3;fillColor=#e51400;strokeColor=#1A1A1A;" parent="1" target="-ZqtGvwiqDM8NGR4fJaD-51" edge="1">
          <mxGeometry width="50" height="50" relative="1" as="geometry">
            <mxPoint x="69" y="344.15" as="sourcePoint" />
            <mxPoint x="230" y="371.15" as="targetPoint" />
            <Array as="points">
              <mxPoint x="69" y="299.15" />
              <mxPoint x="147" y="300.15" />
              <mxPoint x="148" y="355.15" />
            </Array>
          </mxGeometry>
        </mxCell>
        <mxCell id="-ZqtGvwiqDM8NGR4fJaD-59" value="" style="endArrow=none;html=1;rounded=0;entryX=0.053;entryY=0.815;entryDx=0;entryDy=0;entryPerimeter=0;exitX=0.59;exitY=0.911;exitDx=0;exitDy=0;exitPerimeter=0;fillColor=#e51400;strokeColor=#B20000;strokeWidth=3;" parent="1" source="-ZqtGvwiqDM8NGR4fJaD-51" target="-ZqtGvwiqDM8NGR4fJaD-54" edge="1">
          <mxGeometry width="50" height="50" relative="1" as="geometry">
            <mxPoint x="335" y="404.15" as="sourcePoint" />
            <mxPoint x="385" y="354.15" as="targetPoint" />
            <Array as="points">
              <mxPoint x="173" y="322.15" />
              <mxPoint x="173" y="565.15" />
            </Array>
          </mxGeometry>
        </mxCell>
        <mxCell id="-ZqtGvwiqDM8NGR4fJaD-60" value="" style="endArrow=none;html=1;rounded=0;entryX=0.053;entryY=0.815;entryDx=0;entryDy=0;entryPerimeter=0;exitX=0.622;exitY=0.914;exitDx=0;exitDy=0;exitPerimeter=0;fillColor=#e51400;strokeColor=#1A1A1A;strokeWidth=3;" parent="1" source="-ZqtGvwiqDM8NGR4fJaD-51" edge="1">
          <mxGeometry width="50" height="50" relative="1" as="geometry">
            <mxPoint x="222" y="304.15" as="sourcePoint" />
            <mxPoint x="620" y="550.15" as="targetPoint" />
            <Array as="points">
              <mxPoint x="186" y="339.15" />
              <mxPoint x="188" y="547.15" />
            </Array>
          </mxGeometry>
        </mxCell>
        <mxCell id="-ZqtGvwiqDM8NGR4fJaD-61" value="" style="shape=image;verticalLabelPosition=bottom;labelBackgroundColor=default;verticalAlign=top;aspect=fixed;imageAspect=0;image=https://datacapturecontrol.com/articles/static/images/io-devices/microcontrollers/arduino-uno-r3/arduino-uno-r3-title-image.svg;rotation=90;" parent="1" vertex="1">
          <mxGeometry x="109" y="89.14999999999998" width="529.3" height="371" as="geometry" />
        </mxCell>
        <mxCell id="-ZqtGvwiqDM8NGR4fJaD-62" value="" style="shape=image;verticalLabelPosition=bottom;labelBackgroundColor=default;verticalAlign=top;aspect=fixed;imageAspect=0;image=https://europe1.discourse-cdn.com/arduino/original/4X/e/6/3/e6300d41371f1b0cd860cb98181292beeeccf57d.png;clipPath=inset(49.32% 87% 8.78% 3%);" parent="1" vertex="1">
          <mxGeometry x="10" y="344.15" width="105.49" height="218" as="geometry" />
        </mxCell>
        <mxCell id="-ZqtGvwiqDM8NGR4fJaD-63" value="&lt;b&gt;&lt;font style=&quot;font-size: 18px;&quot;&gt;5 Volts&lt;/font&gt;&lt;/b&gt;&lt;div&gt;&lt;b&gt;&lt;font style=&quot;font-size: 18px;&quot;&gt;POWER&lt;/font&gt;&lt;/b&gt;&lt;/div&gt;&lt;div&gt;&lt;b&gt;&lt;font style=&quot;font-size: 18px;&quot;&gt;SUPPLY&lt;/font&gt;&lt;/b&gt;&lt;/div&gt;" style="text;html=1;align=center;verticalAlign=middle;resizable=0;points=[];autosize=1;strokeColor=none;fillColor=none;fontColor=#FFFFFF;labelBackgroundColor=light-dark(#333333, #7f7f7f);fontSize=15;" parent="1" vertex="1">
          <mxGeometry x="16" y="448.15" width="88" height="77" as="geometry" />
        </mxCell>
        <mxCell id="-ZqtGvwiqDM8NGR4fJaD-64" value="" style="shape=image;verticalLabelPosition=bottom;labelBackgroundColor=default;verticalAlign=top;aspect=fixed;imageAspect=0;image=https://tapit.vn/wp-content/uploads/2019/06/Nodemcu-1-1024x645.png;clipPath=inset(1.32% 39.67% 2.38% 30.67%);rotation=0;" parent="1" vertex="1">
          <mxGeometry x="609" y="251.14999999999998" width="190.23" height="389" as="geometry" />
        </mxCell>
        <mxCell id="-ZqtGvwiqDM8NGR4fJaD-65" value="" style="endArrow=none;html=1;rounded=0;strokeWidth=3;entryX=0.941;entryY=0.203;entryDx=0;entryDy=0;entryPerimeter=0;fillColor=#6d8764;strokeColor=#0E8088;" parent="1" target="-ZqtGvwiqDM8NGR4fJaD-64" edge="1">
          <mxGeometry width="50" height="50" relative="1" as="geometry">
            <mxPoint x="531" y="279.15" as="sourcePoint" />
            <mxPoint x="850" y="230.14999999999998" as="targetPoint" />
            <Array as="points">
              <mxPoint x="570" y="280.15" />
              <mxPoint x="571" y="233.14999999999998" />
              <mxPoint x="820" y="233.14999999999998" />
              <mxPoint x="820" y="329.15" />
            </Array>
          </mxGeometry>
        </mxCell>
        <mxCell id="-ZqtGvwiqDM8NGR4fJaD-67" value="" style="endArrow=none;html=1;rounded=0;entryX=0.682;entryY=0.914;entryDx=0;entryDy=0;entryPerimeter=0;strokeWidth=3;fillColor=#e51400;strokeColor=#B20000;" parent="1" target="-ZqtGvwiqDM8NGR4fJaD-61" edge="1">
          <mxGeometry width="50" height="50" relative="1" as="geometry">
            <mxPoint x="59" y="344.15" as="sourcePoint" />
            <mxPoint x="109" y="294.15" as="targetPoint" />
            <Array as="points">
              <mxPoint x="59" y="315.15" />
              <mxPoint x="134" y="315.15" />
              <mxPoint x="135" y="371.15" />
            </Array>
          </mxGeometry>
        </mxCell>
        <mxCell id="-ZqtGvwiqDM8NGR4fJaD-68" value="" style="endArrow=none;html=1;rounded=0;entryX=0.652;entryY=0.911;entryDx=0;entryDy=0;entryPerimeter=0;strokeWidth=3;fillColor=#e51400;strokeColor=#1A1A1A;" parent="1" target="-ZqtGvwiqDM8NGR4fJaD-61" edge="1">
          <mxGeometry width="50" height="50" relative="1" as="geometry">
            <mxPoint x="69" y="344.15" as="sourcePoint" />
            <mxPoint x="230" y="371.15" as="targetPoint" />
            <Array as="points">
              <mxPoint x="69" y="299.15" />
              <mxPoint x="147" y="300.15" />
              <mxPoint x="148" y="355.15" />
            </Array>
          </mxGeometry>
        </mxCell>
        <mxCell id="-ZqtGvwiqDM8NGR4fJaD-69" value="" style="endArrow=none;html=1;rounded=0;entryX=0.053;entryY=0.815;entryDx=0;entryDy=0;entryPerimeter=0;exitX=0.59;exitY=0.911;exitDx=0;exitDy=0;exitPerimeter=0;fillColor=#e51400;strokeColor=#B20000;strokeWidth=3;" parent="1" source="-ZqtGvwiqDM8NGR4fJaD-61" target="-ZqtGvwiqDM8NGR4fJaD-64" edge="1">
          <mxGeometry width="50" height="50" relative="1" as="geometry">
            <mxPoint x="335" y="404.15" as="sourcePoint" />
            <mxPoint x="385" y="354.15" as="targetPoint" />
            <Array as="points">
              <mxPoint x="173" y="322.15" />
              <mxPoint x="173" y="565.15" />
            </Array>
          </mxGeometry>
        </mxCell>
        <mxCell id="-ZqtGvwiqDM8NGR4fJaD-70" value="" style="endArrow=none;html=1;rounded=0;entryX=0.053;entryY=0.815;entryDx=0;entryDy=0;entryPerimeter=0;exitX=0.622;exitY=0.914;exitDx=0;exitDy=0;exitPerimeter=0;fillColor=#e51400;strokeColor=#1A1A1A;strokeWidth=3;" parent="1" source="-ZqtGvwiqDM8NGR4fJaD-61" edge="1">
          <mxGeometry width="50" height="50" relative="1" as="geometry">
            <mxPoint x="222" y="304.15" as="sourcePoint" />
            <mxPoint x="620" y="550.15" as="targetPoint" />
            <Array as="points">
              <mxPoint x="186" y="339.15" />
              <mxPoint x="188" y="547.15" />
            </Array>
          </mxGeometry>
        </mxCell>
        <mxCell id="-ZqtGvwiqDM8NGR4fJaD-71" value="" style="shape=image;verticalLabelPosition=bottom;labelBackgroundColor=default;verticalAlign=top;aspect=fixed;imageAspect=0;image=https://datacapturecontrol.com/articles/static/images/io-devices/microcontrollers/arduino-uno-r3/arduino-uno-r3-title-image.svg;rotation=90;" parent="1" vertex="1">
          <mxGeometry x="109" y="89.14999999999998" width="529.3" height="371" as="geometry" />
        </mxCell>
        <mxCell id="-ZqtGvwiqDM8NGR4fJaD-72" value="" style="shape=image;verticalLabelPosition=bottom;labelBackgroundColor=default;verticalAlign=top;aspect=fixed;imageAspect=0;image=https://europe1.discourse-cdn.com/arduino/original/4X/e/6/3/e6300d41371f1b0cd860cb98181292beeeccf57d.png;clipPath=inset(49.32% 87% 8.78% 3%);" parent="1" vertex="1">
          <mxGeometry x="10" y="344.15" width="105.49" height="218" as="geometry" />
        </mxCell>
        <mxCell id="-ZqtGvwiqDM8NGR4fJaD-73" value="&lt;b&gt;&lt;font style=&quot;font-size: 18px;&quot;&gt;5 Volts&lt;/font&gt;&lt;/b&gt;&lt;div&gt;&lt;b&gt;&lt;font style=&quot;font-size: 18px;&quot;&gt;POWER&lt;/font&gt;&lt;/b&gt;&lt;/div&gt;&lt;div&gt;&lt;b&gt;&lt;font style=&quot;font-size: 18px;&quot;&gt;SUPPLY&lt;/font&gt;&lt;/b&gt;&lt;/div&gt;" style="text;html=1;align=center;verticalAlign=middle;resizable=0;points=[];autosize=1;strokeColor=none;fillColor=none;fontColor=#FFFFFF;labelBackgroundColor=light-dark(#333333, #7f7f7f);fontSize=15;" parent="1" vertex="1">
          <mxGeometry x="16" y="448.15" width="88" height="77" as="geometry" />
        </mxCell>
        <mxCell id="-ZqtGvwiqDM8NGR4fJaD-74" value="" style="shape=image;verticalLabelPosition=bottom;labelBackgroundColor=default;verticalAlign=top;aspect=fixed;imageAspect=0;image=https://tapit.vn/wp-content/uploads/2019/06/Nodemcu-1-1024x645.png;clipPath=inset(1.32% 39.67% 2.38% 30.67%);rotation=0;" parent="1" vertex="1">
          <mxGeometry x="609" y="251.14999999999998" width="190.23" height="389" as="geometry" />
        </mxCell>
        <mxCell id="-ZqtGvwiqDM8NGR4fJaD-75" value="" style="endArrow=none;html=1;rounded=0;strokeWidth=3;entryX=0.941;entryY=0.203;entryDx=0;entryDy=0;entryPerimeter=0;fillColor=#6d8764;strokeColor=#0E8088;" parent="1" target="-ZqtGvwiqDM8NGR4fJaD-74" edge="1">
          <mxGeometry width="50" height="50" relative="1" as="geometry">
            <mxPoint x="531" y="279.15" as="sourcePoint" />
            <mxPoint x="850" y="230.14999999999998" as="targetPoint" />
            <Array as="points">
              <mxPoint x="570" y="280.15" />
              <mxPoint x="571" y="233.14999999999998" />
              <mxPoint x="820" y="233.14999999999998" />
              <mxPoint x="820" y="329.15" />
            </Array>
          </mxGeometry>
        </mxCell>
        <mxCell id="-ZqtGvwiqDM8NGR4fJaD-77" value="" style="endArrow=none;html=1;rounded=0;entryX=0.682;entryY=0.914;entryDx=0;entryDy=0;entryPerimeter=0;strokeWidth=3;fillColor=#e51400;strokeColor=#B20000;" parent="1" target="-ZqtGvwiqDM8NGR4fJaD-71" edge="1">
          <mxGeometry width="50" height="50" relative="1" as="geometry">
            <mxPoint x="59" y="344.15" as="sourcePoint" />
            <mxPoint x="109" y="294.15" as="targetPoint" />
            <Array as="points">
              <mxPoint x="59" y="315.15" />
              <mxPoint x="134" y="315.15" />
              <mxPoint x="135" y="371.15" />
            </Array>
          </mxGeometry>
        </mxCell>
        <mxCell id="-ZqtGvwiqDM8NGR4fJaD-78" value="" style="endArrow=none;html=1;rounded=0;entryX=0.652;entryY=0.911;entryDx=0;entryDy=0;entryPerimeter=0;strokeWidth=3;fillColor=#e51400;strokeColor=#1A1A1A;" parent="1" target="-ZqtGvwiqDM8NGR4fJaD-71" edge="1">
          <mxGeometry width="50" height="50" relative="1" as="geometry">
            <mxPoint x="69" y="344.15" as="sourcePoint" />
            <mxPoint x="230" y="371.15" as="targetPoint" />
            <Array as="points">
              <mxPoint x="69" y="299.15" />
              <mxPoint x="147" y="300.15" />
              <mxPoint x="148" y="355.15" />
            </Array>
          </mxGeometry>
        </mxCell>
        <mxCell id="-ZqtGvwiqDM8NGR4fJaD-79" value="" style="endArrow=none;html=1;rounded=0;entryX=0.053;entryY=0.815;entryDx=0;entryDy=0;entryPerimeter=0;exitX=0.59;exitY=0.911;exitDx=0;exitDy=0;exitPerimeter=0;fillColor=#e51400;strokeColor=#B20000;strokeWidth=3;" parent="1" source="-ZqtGvwiqDM8NGR4fJaD-71" target="-ZqtGvwiqDM8NGR4fJaD-74" edge="1">
          <mxGeometry width="50" height="50" relative="1" as="geometry">
            <mxPoint x="335" y="404.15" as="sourcePoint" />
            <mxPoint x="385" y="354.15" as="targetPoint" />
            <Array as="points">
              <mxPoint x="173" y="322.15" />
              <mxPoint x="173" y="565.15" />
            </Array>
          </mxGeometry>
        </mxCell>
        <mxCell id="-ZqtGvwiqDM8NGR4fJaD-80" value="" style="endArrow=none;html=1;rounded=0;entryX=0.053;entryY=0.815;entryDx=0;entryDy=0;entryPerimeter=0;exitX=0.622;exitY=0.914;exitDx=0;exitDy=0;exitPerimeter=0;fillColor=#e51400;strokeColor=#1A1A1A;strokeWidth=3;" parent="1" source="-ZqtGvwiqDM8NGR4fJaD-71" edge="1">
          <mxGeometry width="50" height="50" relative="1" as="geometry">
            <mxPoint x="222" y="304.15" as="sourcePoint" />
            <mxPoint x="620" y="550.15" as="targetPoint" />
            <Array as="points">
              <mxPoint x="186" y="339.15" />
              <mxPoint x="188" y="547.15" />
            </Array>
          </mxGeometry>
        </mxCell>
        <mxCell id="-ZqtGvwiqDM8NGR4fJaD-81" value="" style="shape=image;verticalLabelPosition=bottom;labelBackgroundColor=default;verticalAlign=top;aspect=fixed;imageAspect=0;image=https://datacapturecontrol.com/articles/static/images/io-devices/microcontrollers/arduino-uno-r3/arduino-uno-r3-title-image.svg;rotation=90;" parent="1" vertex="1">
          <mxGeometry x="109" y="89.14999999999998" width="529.3" height="371" as="geometry" />
        </mxCell>
        <mxCell id="-ZqtGvwiqDM8NGR4fJaD-82" value="" style="shape=image;verticalLabelPosition=bottom;labelBackgroundColor=default;verticalAlign=top;aspect=fixed;imageAspect=0;image=https://europe1.discourse-cdn.com/arduino/original/4X/e/6/3/e6300d41371f1b0cd860cb98181292beeeccf57d.png;clipPath=inset(49.32% 87% 8.78% 3%);" parent="1" vertex="1">
          <mxGeometry x="10" y="344.15" width="105.49" height="218" as="geometry" />
        </mxCell>
        <mxCell id="-ZqtGvwiqDM8NGR4fJaD-83" value="&lt;b&gt;&lt;font style=&quot;font-size: 18px;&quot;&gt;5 Volts&lt;/font&gt;&lt;/b&gt;&lt;div&gt;&lt;b&gt;&lt;font style=&quot;font-size: 18px;&quot;&gt;POWER&lt;/font&gt;&lt;/b&gt;&lt;/div&gt;&lt;div&gt;&lt;b&gt;&lt;font style=&quot;font-size: 18px;&quot;&gt;SUPPLY&lt;/font&gt;&lt;/b&gt;&lt;/div&gt;" style="text;html=1;align=center;verticalAlign=middle;resizable=0;points=[];autosize=1;strokeColor=none;fillColor=none;fontColor=#FFFFFF;labelBackgroundColor=light-dark(#333333, #7f7f7f);fontSize=15;" parent="1" vertex="1">
          <mxGeometry x="16" y="448.15" width="88" height="77" as="geometry" />
        </mxCell>
        <mxCell id="-ZqtGvwiqDM8NGR4fJaD-84" value="" style="shape=image;verticalLabelPosition=bottom;labelBackgroundColor=default;verticalAlign=top;aspect=fixed;imageAspect=0;image=https://tapit.vn/wp-content/uploads/2019/06/Nodemcu-1-1024x645.png;clipPath=inset(1.32% 39.67% 2.38% 30.67%);rotation=0;" parent="1" vertex="1">
          <mxGeometry x="609" y="251.14999999999998" width="190.23" height="389" as="geometry" />
        </mxCell>
        <mxCell id="-ZqtGvwiqDM8NGR4fJaD-85" value="" style="endArrow=none;html=1;rounded=0;strokeWidth=3;entryX=0.941;entryY=0.203;entryDx=0;entryDy=0;entryPerimeter=0;fillColor=#6d8764;strokeColor=#0E8088;" parent="1" target="-ZqtGvwiqDM8NGR4fJaD-84" edge="1">
          <mxGeometry width="50" height="50" relative="1" as="geometry">
            <mxPoint x="531" y="279.15" as="sourcePoint" />
            <mxPoint x="850" y="230.14999999999998" as="targetPoint" />
            <Array as="points">
              <mxPoint x="570" y="280.15" />
              <mxPoint x="571" y="233.14999999999998" />
              <mxPoint x="820" y="233.14999999999998" />
              <mxPoint x="820" y="329.15" />
            </Array>
          </mxGeometry>
        </mxCell>
        <mxCell id="-ZqtGvwiqDM8NGR4fJaD-87" value="" style="endArrow=none;html=1;rounded=0;entryX=0.682;entryY=0.914;entryDx=0;entryDy=0;entryPerimeter=0;strokeWidth=3;fillColor=#e51400;strokeColor=#B20000;" parent="1" target="-ZqtGvwiqDM8NGR4fJaD-81" edge="1">
          <mxGeometry width="50" height="50" relative="1" as="geometry">
            <mxPoint x="59" y="344.15" as="sourcePoint" />
            <mxPoint x="109" y="294.15" as="targetPoint" />
            <Array as="points">
              <mxPoint x="59" y="315.15" />
              <mxPoint x="134" y="315.15" />
              <mxPoint x="135" y="371.15" />
            </Array>
          </mxGeometry>
        </mxCell>
        <mxCell id="-ZqtGvwiqDM8NGR4fJaD-88" value="" style="endArrow=none;html=1;rounded=0;entryX=0.652;entryY=0.911;entryDx=0;entryDy=0;entryPerimeter=0;strokeWidth=3;fillColor=#e51400;strokeColor=#1A1A1A;" parent="1" target="-ZqtGvwiqDM8NGR4fJaD-81" edge="1">
          <mxGeometry width="50" height="50" relative="1" as="geometry">
            <mxPoint x="69" y="344.15" as="sourcePoint" />
            <mxPoint x="230" y="371.15" as="targetPoint" />
            <Array as="points">
              <mxPoint x="69" y="299.15" />
              <mxPoint x="147" y="300.15" />
              <mxPoint x="148" y="355.15" />
            </Array>
          </mxGeometry>
        </mxCell>
        <mxCell id="-ZqtGvwiqDM8NGR4fJaD-89" value="" style="endArrow=none;html=1;rounded=0;entryX=0.053;entryY=0.815;entryDx=0;entryDy=0;entryPerimeter=0;exitX=0.59;exitY=0.911;exitDx=0;exitDy=0;exitPerimeter=0;fillColor=#e51400;strokeColor=#B20000;strokeWidth=3;" parent="1" source="-ZqtGvwiqDM8NGR4fJaD-81" target="-ZqtGvwiqDM8NGR4fJaD-84" edge="1">
          <mxGeometry width="50" height="50" relative="1" as="geometry">
            <mxPoint x="335" y="404.15" as="sourcePoint" />
            <mxPoint x="385" y="354.15" as="targetPoint" />
            <Array as="points">
              <mxPoint x="173" y="322.15" />
              <mxPoint x="173" y="565.15" />
            </Array>
          </mxGeometry>
        </mxCell>
        <mxCell id="-ZqtGvwiqDM8NGR4fJaD-90" value="" style="endArrow=none;html=1;rounded=0;entryX=0.053;entryY=0.815;entryDx=0;entryDy=0;entryPerimeter=0;exitX=0.622;exitY=0.914;exitDx=0;exitDy=0;exitPerimeter=0;fillColor=#e51400;strokeColor=#1A1A1A;strokeWidth=3;" parent="1" source="-ZqtGvwiqDM8NGR4fJaD-81" edge="1">
          <mxGeometry width="50" height="50" relative="1" as="geometry">
            <mxPoint x="222" y="304.15" as="sourcePoint" />
            <mxPoint x="620" y="550.15" as="targetPoint" />
            <Array as="points">
              <mxPoint x="186" y="339.15" />
              <mxPoint x="188" y="547.15" />
            </Array>
          </mxGeometry>
        </mxCell>
        <mxCell id="W5T5aIRPT8nFqeQc9qH1-2" value="" style="endArrow=none;html=1;rounded=0;strokeColor=#FFFFFF;strokeWidth=4;" edge="1" parent="1">
          <mxGeometry width="50" height="50" relative="1" as="geometry">
            <mxPoint x="799" y="313" as="sourcePoint" />
            <mxPoint x="839" y="313" as="targetPoint" />
          </mxGeometry>
        </mxCell>
        <mxCell id="W5T5aIRPT8nFqeQc9qH1-3" value="" style="endArrow=none;html=1;rounded=0;strokeColor=#0E8088;strokeWidth=3;" edge="1" parent="1">
          <mxGeometry width="50" height="50" relative="1" as="geometry">
            <mxPoint x="820" y="330" as="sourcePoint" />
            <mxPoint x="820" y="300" as="targetPoint" />
          </mxGeometry>
        </mxCell>
        <mxCell id="W5T5aIRPT8nFqeQc9qH1-4" value="" style="endArrow=none;html=1;rounded=0;strokeColor=#56517E;strokeWidth=3;entryX=0.941;entryY=0.249;entryDx=0;entryDy=0;entryPerimeter=0;" edge="1" parent="1" target="-ZqtGvwiqDM8NGR4fJaD-84">
          <mxGeometry width="50" height="50" relative="1" as="geometry">
            <mxPoint x="835" y="311" as="sourcePoint" />
            <mxPoint x="835" y="341" as="targetPoint" />
            <Array as="points">
              <mxPoint x="836" y="348" />
            </Array>
          </mxGeometry>
        </mxCell>
      </root>
    </mxGraphModel>
  </diagram>
</mxfile>
